<?xml version="1.0" standalone="no"?>
<!DOCTYPE svg PUBLIC "-//W3C//DTD SVG 20010904//EN"
 "http://www.w3.org/TR/2001/REC-SVG-20010904/DTD/svg10.dtd">
<svg version="1.0" xmlns="http://www.w3.org/2000/svg"
 width="253.000000pt" height="298.000000pt" viewBox="0 0 253.000000 298.000000"
 preserveAspectRatio="xMidYMid meet">

<g transform="translate(0.000000,298.000000) scale(0.100000,-0.100000)"
fill="#000000" stroke="none">
<path d="M1069 2810 c-64 -11 -119 -42 -161 -88 -46 -51 -59 -75 -73 -137
l-11 -50 -200 -5 -200 -5 -66 -33 c-115 -56 -172 -146 -184 -288 -13 -162 14
-224 100 -224 l45 0 3 -787 3 -788 23 -57 c31 -76 108 -160 180 -195 l57 -28
680 0 c678 0 680 0 727 22 66 30 143 105 175 172 l28 56 5 800 5 800 54 5 c86
9 94 24 89 190 -3 128 -5 138 -32 188 -36 65 -82 107 -156 141 -53 25 -64 26
-257 29 -203 3 -203 3 -203 26 0 82 -76 188 -167 233 -55 26 -63 27 -237 30
-100 1 -202 -2 -227 -7z m375 -194 c34 -14 66 -50 66 -73 0 -10 -53 -13 -245
-13 -262 0 -263 0 -229 49 30 42 68 50 227 51 104 0 157 -4 181 -14z m645
-294 c46 -23 71 -59 74 -107 l2 -40 -900 0 -900 0 2 38 c3 47 36 95 77 113 25
11 180 13 821 14 733 0 792 -1 824 -18z m-71 -1096 c1 -521 -1 -761 -9 -789
-14 -52 -72 -111 -124 -126 -53 -15 -1184 -15 -1237 -1 -45 13 -93 51 -116 94
-16 28 -17 95 -20 790 -1 418 0 766 2 773 4 11 145 13 753 11 l748 -3 3 -749z"/>
<path d="M815 1625 l-25 -24 0 -476 0 -476 25 -24 c34 -35 96 -35 130 0 l25
24 0 476 0 476 -25 24 c-18 19 -35 25 -65 25 -30 0 -47 -6 -65 -25z"/>
<path d="M1196 1619 l-26 -31 0 -463 0 -463 26 -31 c36 -43 93 -44 135 -2 l29
29 0 465 0 465 -26 31 c-21 26 -33 31 -69 31 -36 0 -48 -5 -69 -31z"/>
<path d="M1597 1639 c-44 -26 -47 -54 -47 -514 0 -464 2 -490 48 -514 37 -20
91 -13 117 14 l25 24 0 476 0 476 -25 24 c-26 27 -84 34 -118 14z"/>
</g>
</svg>
